<?xml version="1.0" encoding="utf-8"?>
<!-- Generator: Adobe Illustrator 27.5.0, SVG Export Plug-In . SVG Version: 6.00 Build 0)  -->
<svg version="1.1" xmlns="http://www.w3.org/2000/svg" xmlns:xlink="http://www.w3.org/1999/xlink" x="0px" y="0px"
	 viewBox="0 0 500 500" style="enable-background:new 0 0 500 500;" xml:space="preserve">
<g id="BACKGROUND">
</g>
<g id="OBJECTS">
	<g>
		<g>
			<g>
				<g>
					
						<path style="fill:none;stroke:#000000;stroke-width:2.5214;stroke-linecap:round;stroke-linejoin:round;stroke-miterlimit:10;" d="
						M134.287,142.854l33.49,94.67c-2.019,0.703-3.471,2.618-3.471,4.877c0,2.854,2.314,5.168,5.168,5.168
						c1.849,0,3.467-0.974,4.38-2.435l86.245,49.606c2.508,1.443,5.407,2.057,8.284,1.757l135.577-14.165"/>
				</g>
				<g>
					<path style="fill:none;stroke:#000000;stroke-width:2.5214;stroke-miterlimit:10;" d="M406.898,277.313l-135.582,14.17
						c-2.874,0.294-5.774-0.319-8.279-1.757l-87.012-50.049c-2.244-1.294-3.959-3.345-4.824-5.799l-33.98-96.039
						c-2.236-6.337,3.143-12.741,9.766-11.632l107.074,17.969l2.816,10.464l0.034,0.008l6.833,1.311l5.118,15.716l23.684,3.303
						l7.715,1.067l9.766,56.159c0.202,1.16,1,2.126,2.093,2.555l95.476,37.434C410.185,273.211,409.672,277.027,406.898,277.313z"/>
					
						<line style="fill:none;stroke:#000000;stroke-width:1.6809;stroke-miterlimit:10;" x1="172.25" y1="236.029" x2="312.12" y2="234.762"/>
				</g>
				<g>
					<path style="fill:none;stroke:#9C9A9B;stroke-width:2.5214;stroke-miterlimit:10;" d="M202.281,246.935l47.074,26.899
						c2.876,1.643,6.204,2.317,9.493,1.922l104.582-12.568c1.344-0.161,1.576-2.015,0.313-2.502l-50.914-19.649
						c-1.672-0.645-3.452-0.95-5.243-0.895c-14.434,0.443-82.451,2.529-104.403,3.167
						C201.221,243.366,200.578,245.962,202.281,246.935z"/>
					<path style="fill:none;stroke:#9C9A9B;stroke-width:1.6809;stroke-miterlimit:10;" d="M292.221,277.108l7.686,5.571
						c1.288,0.934,2.883,1.342,4.461,1.141l38.637-4.908c1.475-0.187,1.909-2.116,0.656-2.917l-7.701-4.925
						c-1.197-0.765-2.618-1.101-4.031-0.951l-38.944,4.121C291.538,274.393,291.041,276.253,292.221,277.108z"/>
				</g>
				<g>
					<path style="fill:none;stroke:#9C9A9B;stroke-width:2.5214;stroke-miterlimit:10;" d="M298.749,230.441l-112.755-1.051
						c-2.942-0.034-5.555-1.883-6.547-4.656l-29.029-81.02c-1.185-3.303,1.622-6.656,5.085-6.076l101.376,17.002l0.034,0.008
						l6.833,1.311l5.118,15.716l23.684,3.303l8.749,52.478C301.556,229.029,300.337,230.458,298.749,230.441z"/>
					<g>
						<g>
							<g>
								
									<line style="fill:none;stroke:#9C9A9B;stroke-width:2.5214;stroke-miterlimit:10;" x1="160.434" y1="171.676" x2="188.992" y2="143.254"/>
								
									<line style="fill:none;stroke:#9C9A9B;stroke-width:2.5214;stroke-miterlimit:10;" x1="164.042" y1="181.743" x2="198.229" y2="144.803"/>
							</g>
							
								<line style="fill:none;stroke:#9C9A9B;stroke-width:2.5214;stroke-miterlimit:10;" x1="249.364" y1="229.978" x2="294.696" y2="184.647"/>
							
								<line style="fill:none;stroke:#9C9A9B;stroke-width:2.5214;stroke-miterlimit:10;" x1="263.742" y1="229.978" x2="296.325" y2="197.395"/>
						</g>
					</g>
				</g>
				<g>
					<g>
						<path style="fill:none;stroke:#9C9A9B;stroke-width:1.2607;stroke-miterlimit:10;" d="M267.663,154.542l4.502,12.598
							c0.045,0.126,0.157,0.217,0.29,0.233l11.783,1.486c0.255,0.032,0.459-0.208,0.385-0.455l-3.612-12.099
							c-0.039-0.131-0.15-0.229-0.286-0.25l-12.672-1.985C267.787,154.029,267.572,154.288,267.663,154.542z"/>
						<path style="fill:none;stroke:#9C9A9B;stroke-width:1.2607;stroke-miterlimit:10;" d="M260.276,150.501l8.758,1.239
							c0.253,0.036,0.461-0.199,0.393-0.446l-2.394-8.748c-0.039-0.143-0.162-0.246-0.309-0.26l-8.554-0.828
							c-0.246-0.024-0.441,0.205-0.378,0.445l2.19,8.336C260.018,150.378,260.134,150.481,260.276,150.501z"/>
						<path style="fill:none;stroke:#9C9A9B;stroke-width:1.2607;stroke-miterlimit:10;" d="M257.02,138.114l7.467,1.057
							c0.253,0.036,0.461-0.199,0.393-0.446l-2.042-7.46c-0.039-0.142-0.162-0.246-0.309-0.26l-7.294-0.706
							c-0.247-0.024-0.441,0.205-0.378,0.445l1.868,7.109C256.762,137.991,256.878,138.094,257.02,138.114z"/>
						<path style="fill:none;stroke:#9C9A9B;stroke-width:1.2607;stroke-miterlimit:10;" d="M268.914,139.841l5.586,0.79
							c0.253,0.036,0.461-0.199,0.393-0.446l-1.528-5.583c-0.039-0.142-0.162-0.246-0.309-0.26l-5.456-0.528
							c-0.246-0.024-0.441,0.205-0.378,0.445l1.398,5.321C268.656,139.718,268.772,139.821,268.914,139.841z"/>
						<path style="fill:none;stroke:#9C9A9B;stroke-width:1.2607;stroke-miterlimit:10;" d="M278.658,141.852l5.586,0.791
							c0.253,0.036,0.461-0.199,0.393-0.446l-1.528-5.583c-0.039-0.142-0.162-0.246-0.309-0.26l-5.456-0.528
							c-0.247-0.024-0.441,0.205-0.378,0.445l1.398,5.321C278.4,141.728,278.516,141.831,278.658,141.852z"/>
						<path style="fill:none;stroke:#9C9A9B;stroke-width:1.2607;stroke-miterlimit:10;" d="M290.31,145.403l5.586,0.79
							c0.253,0.036,0.461-0.199,0.393-0.446l-1.528-5.583c-0.039-0.143-0.162-0.246-0.309-0.26l-5.456-0.528
							c-0.247-0.024-0.441,0.205-0.379,0.445l1.398,5.321C290.053,145.279,290.169,145.383,290.31,145.403z"/>
						<path style="fill:none;stroke:#9C9A9B;stroke-width:1.2607;stroke-miterlimit:10;" d="M272.904,132.448l3.807,0.539
							c0.253,0.036,0.461-0.199,0.393-0.446l-1.042-3.808c-0.039-0.142-0.162-0.246-0.309-0.26l-3.718-0.36
							c-0.246-0.024-0.441,0.205-0.378,0.445l0.953,3.629C272.646,132.325,272.762,132.428,272.904,132.448z"/>
						<path style="fill:none;stroke:#9C9A9B;stroke-width:1.2607;stroke-miterlimit:10;" d="M281.542,133.068l3.807,0.539
							c0.253,0.036,0.461-0.199,0.393-0.446l-1.042-3.808c-0.039-0.142-0.162-0.246-0.309-0.26l-3.718-0.36
							c-0.246-0.024-0.441,0.205-0.378,0.445l0.953,3.629C281.284,132.945,281.4,133.048,281.542,133.068z"/>
						<path style="fill:none;stroke:#9C9A9B;stroke-width:1.2607;stroke-miterlimit:10;" d="M289.589,137.042l3.807,0.539
							c0.253,0.036,0.461-0.199,0.393-0.446l-1.042-3.808c-0.039-0.142-0.162-0.246-0.309-0.26l-3.718-0.36
							c-0.246-0.024-0.441,0.205-0.378,0.445l0.953,3.629C289.331,136.919,289.447,137.022,289.589,137.042z"/>
						<path style="fill:none;stroke:#9C9A9B;stroke-width:1.2607;stroke-miterlimit:10;" d="M299.2,144.682l3.807,0.539
							c0.253,0.036,0.461-0.199,0.393-0.446l-1.042-3.808c-0.039-0.142-0.162-0.246-0.309-0.26l-3.718-0.36
							c-0.246-0.024-0.441,0.205-0.379,0.445l0.953,3.629C298.942,144.559,299.058,144.663,299.2,144.682z"/>
						<path style="fill:none;stroke:#9C9A9B;stroke-width:1.2607;stroke-miterlimit:10;" d="M287.519,130.341l2.439,0.345
							c0.253,0.036,0.461-0.2,0.393-0.446l-0.669-2.443c-0.039-0.143-0.162-0.246-0.309-0.26l-2.382-0.231
							c-0.246-0.024-0.441,0.205-0.378,0.445l0.612,2.329C287.261,130.218,287.377,130.321,287.519,130.341z"/>
						<path style="fill:none;stroke:#9C9A9B;stroke-width:1.2607;stroke-miterlimit:10;" d="M295.941,136.079l2.439,0.345
							c0.253,0.036,0.461-0.199,0.393-0.446l-0.669-2.443c-0.039-0.142-0.162-0.246-0.309-0.26l-2.382-0.231
							c-0.246-0.024-0.441,0.205-0.379,0.445l0.612,2.329C295.683,135.956,295.799,136.059,295.941,136.079z"/>
						<path style="fill:none;stroke:#9C9A9B;stroke-width:1.2607;stroke-miterlimit:10;" d="M288.934,168.88l12.064,1.849
							c0.255,0.039,0.465-0.197,0.397-0.446l-2.394-8.747c-0.038-0.139-0.157-0.242-0.301-0.259l-11.858-1.429
							c-0.249-0.03-0.451,0.201-0.387,0.444l2.188,8.327C288.68,168.756,288.794,168.858,288.934,168.88z"/>
						<path style="fill:none;stroke:#9C9A9B;stroke-width:1.2607;stroke-miterlimit:10;" d="M273.079,151.893l16.236,2.592
							c0.255,0.041,0.468-0.196,0.399-0.445l-2.394-8.747c-0.038-0.138-0.154-0.24-0.296-0.259l-16.028-2.165
							c-0.251-0.034-0.456,0.198-0.392,0.443l2.186,8.32C272.827,151.768,272.94,151.871,273.079,151.893z"/>
					</g>
				</g>
			</g>
			<g>
				
					<path style="fill:none;stroke:#00BAF0;stroke-width:2.5214;stroke-linecap:round;stroke-linejoin:round;stroke-miterlimit:10;" d="
					M254.002,190.95c0.815,10.553-6.514,18.863-16.918,18.396c-11.048-0.496-21.008-10.568-21.602-22.294
					c-0.584-11.538,8.205-19.316,19.019-17.633C244.701,171.006,253.198,180.55,254.002,190.95z"/>
				
					<path style="fill:none;stroke:#00BAF0;stroke-width:2.5214;stroke-linecap:round;stroke-linejoin:round;stroke-miterlimit:10;" d="
					M250.033,190.548c0.614,8.24-5.17,14.626-13.25,14.159c-8.463-0.489-16.02-8.231-16.502-17.17
					c-0.477-8.828,6.179-14.897,14.505-13.703C242.743,174.976,249.426,182.402,250.033,190.548z"/>
				
					<path style="fill:none;stroke:#00BAF0;stroke-width:2.5214;stroke-linecap:round;stroke-linejoin:round;stroke-miterlimit:10;" d="
					M261.94,188.673l-4.225-1.923c-0.826-3.25-2.218-6.343-4.047-9.139l1.87-3.533c0.312-0.59,0.156-1.435-0.378-2.046l-2.843-3.254
					c-0.509-0.583-1.241-0.824-1.811-0.596l-4.054,1.626c-2.542-1.952-5.391-3.503-8.435-4.513l-1.534-5.308
					c-0.23-0.795-0.935-1.457-1.709-1.602l-4.146-0.773c-0.747-0.139-1.382,0.222-1.567,0.896l-1.551,5.642
					c-2.676,0.323-5.175,1.133-7.41,2.371l-5.997-4.404c-0.767-0.563-1.727-0.616-2.321-0.123l-3.184,2.638
					c-0.574,0.475-0.677,1.327-0.254,2.104l3.926,7.217l-2.647,7.084l-7.527,0.879c-0.913,0.107-1.534,0.815-1.497,1.714
					l0.193,4.771c0.034,0.852,0.646,1.659,1.51,1.995l7.902,3.069l3.743,7.773l-3.722,6.253c-0.448,0.753-0.282,1.761,0.403,2.432
					l3.592,3.522c0.634,0.622,1.563,0.793,2.297,0.426l6.692-3.346l7.474,3.186l2.067,7.178c0.245,0.851,1,1.456,1.823,1.462
					l4.289,0.036c0.752,0.006,1.381-0.509,1.557-1.272l1.543-6.673c2.621-0.462,5.012-1.394,7.111-2.706l4.829,3.277
					c0.654,0.443,1.443,0.361,1.91-0.195l2.44-2.91c0.429-0.512,0.477-1.318,0.119-1.998l-2.678-5.088
					c1.383-2.418,2.308-5.182,2.686-8.182l4.052-0.753c0.646-0.12,1.055-0.744,0.991-1.509l-0.337-4.031
					C263.028,189.634,262.565,188.957,261.94,188.673z"/>
			</g>
		</g>
		<g>
			
				<path style="fill:none;stroke:#00BAF0;stroke-width:2.5214;stroke-linecap:round;stroke-linejoin:round;stroke-miterlimit:10;" d="
				M235.293,294.634c-64.905,17.422-119.93,12.278-129.962-14.613c-7.332-19.653,11.103-46.27,45.158-70.631"/>
			
				<path style="fill:none;stroke:#00BAF0;stroke-width:2.5214;stroke-linecap:round;stroke-linejoin:round;stroke-miterlimit:10;" d="
				M297.613,151.416c47.63-6.738,84.444,0.857,92.469,22.367c8.299,22.245-16.414,53.412-59.424,80.131"/>
			
				<path style="fill:none;stroke:#00BAF0;stroke-width:2.5214;stroke-linecap:round;stroke-linejoin:round;stroke-miterlimit:10;" d="
				M275.628,269.655c-2.168,0.856-4.358,1.697-6.569,2.522c-70.88,26.444-136.398,26.281-146.339-0.364
				c-5.462-14.639,6.988-34.226,31.071-53.291"/>
			
				<path style="fill:none;stroke:#00BAF0;stroke-width:2.5214;stroke-linecap:round;stroke-linejoin:round;stroke-miterlimit:10;" d="
				M301.331,157.96c40.637-5.566,71.494,0.475,78.065,18.089c7.626,20.44-19.667,50.526-64.788,75.368"/>
			
				<path style="fill:none;stroke:#00BAF0;stroke-width:2.5214;stroke-linecap:round;stroke-linejoin:round;stroke-miterlimit:10;" d="
				M211.653,279.819c-39.563,6.879-70.037,2.36-76.036-13.718c-4.094-10.974,3.954-25.347,20.415-39.954"/>
			
				<path style="fill:none;stroke:#00BAF0;stroke-width:2.5214;stroke-linecap:round;stroke-linejoin:round;stroke-miterlimit:10;" d="
				M302.279,164.642c33.417-3.955,58.276,1.186,63.631,15.539c4.84,12.974-7.292,30.699-30.231,47.945"/>
			
				<path style="fill:none;stroke:#00BAF0;stroke-width:2.5214;stroke-linecap:round;stroke-linejoin:round;stroke-miterlimit:10;" d="
				M219.254,279.127c0,2.099-1.702,3.801-3.801,3.801c-2.099,0-3.801-1.702-3.801-3.801c0-2.099,1.702-3.801,3.801-3.801
				C217.553,275.327,219.254,277.028,219.254,279.127z"/>
			
				<path style="fill:none;stroke:#00BAF0;stroke-width:2.5214;stroke-linecap:round;stroke-linejoin:round;stroke-miterlimit:10;" d="
				M282.936,268.191c0,2.099-1.702,3.801-3.801,3.801c-2.099,0-3.801-1.702-3.801-3.801c0-2.099,1.702-3.801,3.801-3.801
				C281.234,264.39,282.936,266.091,282.936,268.191z"/>
			
				<circle style="fill:none;stroke:#00BAF0;stroke-width:2.5214;stroke-linecap:round;stroke-linejoin:round;stroke-miterlimit:10;" cx="332.361" cy="229.978" r="3.801"/>
			
				<path style="fill:none;stroke:#00BAF0;stroke-width:2.5214;stroke-linecap:round;stroke-linejoin:round;stroke-miterlimit:10;" d="
				M314.299,251.551c0.199,0.462,0.31,0.971,0.31,1.505c0,2.099-1.702,3.801-3.801,3.801c-2.099,0-3.801-1.702-3.801-3.801
				c0-2.099,1.702-3.801,3.801-3.801C312.372,249.255,313.716,250.2,314.299,251.551"/>
			
				<path style="fill:none;stroke:#00BAF0;stroke-width:2.5214;stroke-linecap:round;stroke-linejoin:round;stroke-miterlimit:10;" d="
				M242.769,293.679c0,2.099-1.702,3.801-3.801,3.801c-2.099,0-3.801-1.702-3.801-3.801c0-2.099,1.702-3.801,3.801-3.801
				C241.068,289.878,242.769,291.58,242.769,293.679z"/>
			
				<path style="fill:none;stroke:#00BAF0;stroke-width:2.5214;stroke-linecap:round;stroke-linejoin:round;stroke-miterlimit:10;" d="
				M330.217,254.148c0.282,0.531,0.441,1.136,0.441,1.779c0,2.099-1.702,3.801-3.801,3.801c-2.099,0-3.801-1.702-3.801-3.801
				c0-2.099,1.702-3.801,3.801-3.801C328.313,252.126,329.578,252.945,330.217,254.148"/>
		</g>
		<g>
			
				<polygon style="fill:none;stroke:#00BAF0;stroke-width:1.6809;stroke-linecap:round;stroke-linejoin:round;stroke-miterlimit:10;" points="
				377.396,244.073 386.246,242.055 377.553,240.07 375.473,230.799 373.391,240.077 364.574,242.055 373.548,244.068 
				375.473,253.311 			"/>
			
				<polygon style="fill:none;stroke:#00BAF0;stroke-width:1.6809;stroke-linecap:round;stroke-linejoin:round;stroke-miterlimit:10;" points="
				94.038,299.498 102.887,297.48 94.194,295.495 92.114,286.224 90.032,295.501 81.215,297.48 90.189,299.493 92.114,308.736 			
				"/>
			
				<polygon style="fill:none;stroke:#00BAF0;stroke-width:1.6809;stroke-linecap:round;stroke-linejoin:round;stroke-miterlimit:10;" points="
				230.609,123.305 237.118,121.821 230.724,120.361 229.194,113.543 227.663,120.366 221.179,121.821 227.779,123.302 
				229.194,130.1 			"/>
			
				<polygon style="fill:none;stroke:#00BAF0;stroke-width:1.6809;stroke-linecap:round;stroke-linejoin:round;stroke-miterlimit:10;" points="
				136.024,198.879 142.533,197.395 136.139,195.935 134.609,189.116 133.078,195.94 126.593,197.395 133.193,198.876 
				134.609,205.673 			"/>
		</g>
	</g>
	<g>
		<g>
			<text transform="matrix(1 0 0 1 85.7697 367.3665)" style="fill:#00BAF0; font-family:'Montserrat-Bold'; font-size:44.0628px;">LAPTOP</text>
			<text transform="matrix(1 0 0 1 280.3053 367.3665)" style="font-family:'Montserrat-Medium'; font-size:44.0628px;">LOGO</text>
		</g>
		
			<text transform="matrix(1 0 0 1 151.3932 391.4495)" style="fill:#444444; font-family:'Montserrat-Medium'; font-size:19.6381px; letter-spacing:4;">TAGLINE HERE</text>
	</g>
</g>
</svg>
