<?xml version="1.0" encoding="utf-8"?>
<!-- Generator: Adobe Illustrator 27.5.0, SVG Export Plug-In . SVG Version: 6.00 Build 0)  -->
<svg version="1.1" xmlns="http://www.w3.org/2000/svg" xmlns:xlink="http://www.w3.org/1999/xlink" x="0px" y="0px"
	 viewBox="0 0 500 500" style="enable-background:new 0 0 500 500;" xml:space="preserve">
<g id="BACKGROUND">
	<rect style="fill:#FFFFFF;" width="500" height="500"/>
</g>
<g id="OBJECTS">
	<g>
		<g>
			
				<text transform="matrix(1 0 0 1 154.362 422.8206)" style="font-family:'Montserrat-Black'; font-size:40.0182px; letter-spacing:2;">LAPTOP</text>
			<g>
				<linearGradient id="SVGID_1_" gradientUnits="userSpaceOnUse" x1="156.6432" y1="408.8143" x2="341.6862" y2="408.8143">
					<stop  offset="0" style="stop-color:#8944EA"/>
					<stop  offset="1" style="stop-color:#6B2CCE"/>
				</linearGradient>
				<path style="fill:url(#SVGID_1_);" d="M156.643,422.821v-28.013h9.444v20.689h12.646v7.323H156.643z"/>
				
					<linearGradient id="SVGID_00000152962987501661080310000012611859553499291035_" gradientUnits="userSpaceOnUse" x1="156.6432" y1="408.8143" x2="341.6862" y2="408.8143">
					<stop  offset="0" style="stop-color:#8944EA"/>
					<stop  offset="1" style="stop-color:#6B2CCE"/>
				</linearGradient>
				<path style="fill:url(#SVGID_00000152962987501661080310000012611859553499291035_);" d="M180.693,422.821l12.246-28.013h9.284
					l12.246,28.013h-9.765l-9.044-23.53h3.682l-9.044,23.53H180.693z M187.977,417.939l2.401-6.804h12.886l2.401,6.804H187.977z"/>
				
					<linearGradient id="SVGID_00000150802514807449319330000002977493872998460850_" gradientUnits="userSpaceOnUse" x1="156.6432" y1="408.8143" x2="341.6862" y2="408.8143">
					<stop  offset="0" style="stop-color:#8944EA"/>
					<stop  offset="1" style="stop-color:#6B2CCE"/>
				</linearGradient>
				<path style="fill:url(#SVGID_00000150802514807449319330000002977493872998460850_);" d="M218.391,422.821v-28.013h13.486
					c2.614,0,4.875,0.427,6.783,1.28c1.907,0.854,3.381,2.075,4.422,3.662c1.041,1.588,1.561,3.461,1.561,5.622
					s-0.52,4.029-1.561,5.603c-1.041,1.575-2.515,2.795-4.422,3.662c-1.908,0.867-4.169,1.301-6.783,1.301h-8.244l4.202-4.042
					v10.925H218.391z M227.835,412.936l-4.202-4.281h7.644c1.307,0,2.274-0.294,2.901-0.881c0.626-0.587,0.94-1.387,0.94-2.401
					c0-1.014-0.314-1.813-0.94-2.4c-0.627-0.587-1.595-0.881-2.901-0.881h-7.644l4.202-4.282V412.936z"/>
				
					<linearGradient id="SVGID_00000000211227749023759340000004009659464567027097_" gradientUnits="userSpaceOnUse" x1="156.6432" y1="408.8143" x2="341.6862" y2="408.8143">
					<stop  offset="0" style="stop-color:#8944EA"/>
					<stop  offset="1" style="stop-color:#6B2CCE"/>
				</linearGradient>
				<path style="fill:url(#SVGID_00000000211227749023759340000004009659464567027097_);" d="M256.608,422.821v-20.689h-8.204
					v-7.323h25.852v7.323h-8.204v20.689H256.608z"/>
				
					<linearGradient id="SVGID_00000070840754065534944980000000096471157637691835_" gradientUnits="userSpaceOnUse" x1="156.6432" y1="408.8143" x2="341.6862" y2="408.8143">
					<stop  offset="0" style="stop-color:#8944EA"/>
					<stop  offset="1" style="stop-color:#6B2CCE"/>
				</linearGradient>
				<path style="fill:url(#SVGID_00000070840754065534944980000000096471157637691835_);" d="M293.825,423.461
					c-2.295,0-4.409-0.36-6.343-1.081c-1.935-0.72-3.608-1.74-5.022-3.062c-1.414-1.32-2.515-2.874-3.302-4.662
					c-0.787-1.787-1.181-3.734-1.181-5.843c0-2.134,0.394-4.088,1.181-5.862c0.787-1.773,1.888-3.321,3.302-4.642
					c1.414-1.321,3.088-2.342,5.022-3.062c1.934-0.721,4.035-1.081,6.303-1.081c2.294,0,4.402,0.36,6.323,1.081
					c1.921,0.72,3.588,1.74,5.002,3.062c1.414,1.32,2.514,2.868,3.302,4.642c0.786,1.774,1.18,3.729,1.18,5.862
					c0,2.108-0.394,4.056-1.18,5.843c-0.788,1.788-1.888,3.342-3.302,4.662c-1.414,1.321-3.081,2.342-5.002,3.062
					C298.187,423.101,296.092,423.461,293.825,423.461z M293.785,415.818c0.88,0,1.701-0.16,2.461-0.48
					c0.761-0.32,1.427-0.78,2.001-1.381c0.573-0.6,1.021-1.333,1.341-2.201c0.32-0.866,0.48-1.847,0.48-2.941
					c0-1.093-0.16-2.073-0.48-2.94s-0.768-1.602-1.341-2.201c-0.574-0.601-1.24-1.061-2.001-1.381c-0.76-0.32-1.581-0.48-2.461-0.48
					c-0.881,0-1.701,0.16-2.461,0.48c-0.761,0.32-1.428,0.78-2.001,1.381c-0.574,0.6-1.021,1.334-1.341,2.201s-0.48,1.848-0.48,2.94
					c0,1.095,0.16,2.075,0.48,2.941c0.32,0.868,0.767,1.602,1.341,2.201c0.573,0.601,1.24,1.061,2.001,1.381
					C292.084,415.658,292.904,415.818,293.785,415.818z"/>
				
					<linearGradient id="SVGID_00000031179923814967276350000004612354610996209032_" gradientUnits="userSpaceOnUse" x1="156.6432" y1="408.8143" x2="341.6862" y2="408.8143">
					<stop  offset="0" style="stop-color:#8944EA"/>
					<stop  offset="1" style="stop-color:#6B2CCE"/>
				</linearGradient>
				<path style="fill:url(#SVGID_00000031179923814967276350000004612354610996209032_);" d="M315.434,422.821v-28.013h13.486
					c2.614,0,4.875,0.427,6.782,1.28c1.907,0.854,3.382,2.075,4.423,3.662c1.04,1.588,1.561,3.461,1.561,5.622
					s-0.521,4.029-1.561,5.603c-1.041,1.575-2.516,2.795-4.423,3.662s-4.168,1.301-6.782,1.301h-8.244l4.202-4.042v10.925H315.434z
					 M324.879,412.936l-4.202-4.281h7.644c1.307,0,2.274-0.294,2.901-0.881c0.626-0.587,0.94-1.387,0.94-2.401
					c0-1.014-0.314-1.813-0.94-2.4c-0.627-0.587-1.595-0.881-2.901-0.881h-7.644l4.202-4.282V412.936z"/>
			</g>
		</g>
		<g>
			
				<text transform="matrix(1 0 0 1 166.1417 437.3304)" style="font-family:'Montserrat-Regular'; font-size:8.8519px; letter-spacing:4;">YOUR TAGLINE HERE</text>
			
				<text transform="matrix(1 0 0 1 166.1417 437.3304)" style="fill:#482866; font-family:'Montserrat-Regular'; font-size:8.8519px; letter-spacing:4;">YOUR TAGLINE HERE</text>
		</g>
	</g>
	<g>
		
			<radialGradient id="SVGID_00000104677321477627386640000010048282423386175902_" cx="172.1144" cy="204.9679" r="310.7174" gradientTransform="matrix(1 0 0 0.4194 0 160.3395)" gradientUnits="userSpaceOnUse">
			<stop  offset="0" style="stop-color:#FFFFFF"/>
			<stop  offset="1" style="stop-color:#EBE3FF"/>
		</radialGradient>
		
			<ellipse style="fill:url(#SVGID_00000104677321477627386640000010048282423386175902_);" cx="247.19" cy="297.811" rx="171.258" ry="71.819"/>
		<g>
			<g>
				
					<linearGradient id="SVGID_00000057849378614860556910000017669514337730605240_" gradientUnits="userSpaceOnUse" x1="222.7336" y1="257.587" x2="247.8401" y2="335.885">
					<stop  offset="0" style="stop-color:#7B1FEA"/>
					<stop  offset="1" style="stop-color:#4C14A5"/>
				</linearGradient>
				<path style="fill:url(#SVGID_00000057849378614860556910000017669514337730605240_);" d="M389.729,274.776l-25.685,1.397
					l-170.129-24.59c-2.136-0.309-5.686,0.189-7.97,1.114l-94.49,38.301l-16.818,0.915l-0.014,7.303l0.009,0
					c0.004,0.352,0.244,0.654,0.759,0.872l174.249,73.615c5.333,2.253,13.237,1.584,17.459-1.497l121.762-88.853
					c0.612-0.446,0.878-0.912,0.856-1.37l0.011-0.001V274.776z"/>
				<g>
					
						<linearGradient id="SVGID_00000016769514412358793000000014293876576143859390_" gradientUnits="userSpaceOnUse" x1="212.2024" y1="213.9151" x2="249.3749" y2="342.9033">
						<stop  offset="0" style="stop-color:#8944EA"/>
						<stop  offset="1" style="stop-color:#6B2CCE"/>
					</linearGradient>
					<path style="fill:url(#SVGID_00000016769514412358793000000014293876576143859390_);" d="M75.392,292.722l174.249,73.615
						c5.332,2.253,13.237,1.584,17.459-1.497l121.762-88.853c2.282-1.665-0.104-3.608-5.214-4.346l-189.733-27.423
						c-2.136-0.309-5.686,0.189-7.97,1.114l-107.68,43.648C74.972,290.314,73.661,291.991,75.392,292.722z"/>
					<polygon style="fill:#FFFFFF;" points="91.197,285.291 274.712,352.545 365.142,287.874 170.861,252.808 					"/>
					
						<linearGradient id="SVGID_00000041269087848534956360000000918659336206483632_" gradientUnits="userSpaceOnUse" x1="191.4998" y1="222.934" x2="267.7031" y2="359.3564">
						<stop  offset="0" style="stop-color:#8944EA"/>
						<stop  offset="1" style="stop-color:#6B2CCE"/>
					</linearGradient>
					<path style="fill:url(#SVGID_00000041269087848534956360000000918659336206483632_);" d="M343.79,286.269l14.627,2.705
						l-12.527,8.836l-14.733-3.049L343.79,286.269z M305.307,289.412l21.534,4.457l12.659-8.392l-21.44-3.965L305.307,289.412z
						 M281.455,284.475l19.341,4.003l12.765-7.8l-19.317-3.573L281.455,284.475z M259.925,280.019l17.466,3.615l12.787-7.28
						l-17.495-3.236L259.925,280.019z M240.394,275.977l15.851,3.281l12.747-6.822l-15.919-2.944L240.394,275.977z M222.597,272.294
						l14.451,2.991l12.661-6.415l-14.546-2.69L222.597,272.294z M206.311,268.923l13.228,2.738l12.542-6.052l-13.344-2.468
						L206.311,268.923z M191.353,265.827l12.154,2.516l12.398-5.726l-12.285-2.272L191.353,265.827z M177.566,262.974l11.206,2.319
						l12.237-5.431l-11.347-2.099L177.566,262.974z M158.206,258.967l16.976,3.513l12.063-5.164l-17.227-3.186L158.206,258.967z
						 M307.362,303.029l23.346,5.49l13.502-9.524l-23.227-4.878L307.362,303.029z M281.692,296.993l20.799,4.891l13.637-8.786
						l-20.769-4.361L281.692,296.993z M258.691,291.584l18.647,4.385l13.667-8.147l-18.681-3.923L258.691,291.584z M237.963,286.71
						l16.813,3.954l13.62-7.59l-16.893-3.547L237.963,286.71z M219.187,282.295l15.237,3.583l13.518-7.099l-15.35-3.223
						L219.187,282.295z M202.1,278.277l13.872,3.262l13.377-6.665l-14.009-2.942L202.1,278.277z M186.484,274.605l12.683,2.982
						l13.208-6.278l-12.837-2.696L186.484,274.605z M172.156,271.236l11.64,2.737l13.019-5.931l-11.805-2.479L172.156,271.236z
						 M158.964,268.134l10.721,2.521l12.817-5.618l-10.893-2.288L158.964,268.134z M144.261,264.677l12.601,2.963l12.609-5.34
						l-12.828-2.694L144.261,264.677z M129.628,270.669l8.908,2.384l13.188-5.533l-9.102-2.172L129.628,270.669z M283.984,311.979
						l28.569,7.646l14.604-10.242l-28.496-6.8L283.984,311.979z M259.076,305.313l20.177,5.4l14.677-9.259l-20.211-4.823
						L259.076,305.313z M236.811,299.354l18.048,4.83l14.628-8.563l-18.14-4.329L236.811,299.354z M216.787,293.995l16.238,4.346
						l14.511-7.958l-16.371-3.907L216.787,293.995z M198.684,289.15l14.688,3.931l14.345-7.428l-14.849-3.543L198.684,289.15z
						 M182.238,284.749l13.35,3.573l14.146-6.959l-13.53-3.229L182.238,284.749z M167.231,280.733l12.187,3.261l13.924-6.543
						l-12.38-2.954L167.231,280.733z M153.481,277.053l11.169,2.989l13.687-6.172l-11.37-2.713L153.481,277.053z M140.839,273.669
						l10.274,2.749l13.441-5.838l-10.478-2.5L140.839,273.669z M253.199,319.409l41.56,12.695l15.831-11.103l-41.6-11.301
						L253.199,319.409z M229.847,312.275l18.915,5.778l15.77-9.564l-19.037-5.172L229.847,312.275z M208.989,305.904l16.905,5.164
						l15.615-8.833l-17.073-4.638L208.989,305.904z M190.246,300.178l15.2,4.643l15.406-8.198l-15.398-4.183L190.246,300.178z
						 M173.311,295.005l13.74,4.197l15.161-7.643l-13.958-3.792L173.311,295.005z M157.935,290.308l12.48,3.812l14.892-7.154
						l-12.711-3.453L157.935,290.308z M143.912,286.024l11.387,3.478l14.609-6.719l-11.624-3.158L143.912,286.024z M131.071,282.102
						l10.431,3.186l14.319-6.332l-10.671-2.899L131.071,282.102z M114.254,276.965l14.015,4.281l14.011-5.968l-14.372-3.904
						L114.254,276.965z M231.364,332.834l41.332,14.744l17.419-12.217l-41.528-13.116L231.364,332.834z M208.304,324.608l18.67,6.66
						l17.185-10.422l-18.871-5.96L208.304,324.608z M187.805,317.296l16.607,5.924l16.934-9.579l-16.848-5.321L187.805,317.296z
						 M112.044,290.27l72.287,25.787l16.635-8.853l-73.957-23.359L112.044,290.27z M95.86,284.497l13.484,4.81l14.885-6.34
						l-13.906-4.392L95.86,284.497z"/>
				</g>
			</g>
			<g>
				<g>
					<g>
						
							<linearGradient id="SVGID_00000022551719783859690930000011196982660104336778_" gradientUnits="userSpaceOnUse" x1="145.9355" y1="168.7008" x2="349.269" y2="168.7008" gradientTransform="matrix(1 0 0 1 49.5141 0)">
							<stop  offset="0" style="stop-color:#7B1FEA"/>
							<stop  offset="1" style="stop-color:#4C14A5"/>
						</linearGradient>
						<path style="fill:url(#SVGID_00000022551719783859690930000011196982660104336778_);" d="M382.88,266.578l-183.038-25.627
							c-2.435-0.326-4.393-3.284-4.393-6.61V103.736c0-3.325,1.958-6.283,4.393-6.61l189.342-26.415
							c4.521-0.606,9.598,3.484,9.598,8.079v180.496C398.783,263.882,394.404,267.604,382.88,266.578z"/>
						
							<linearGradient id="SVGID_00000098188954113435761770000003351199429003523469_" gradientUnits="userSpaceOnUse" x1="138.4821" y1="169.0408" x2="394.5027" y2="169.0408">
							<stop  offset="0" style="stop-color:#8944EA"/>
							<stop  offset="1" style="stop-color:#6B2CCE"/>
						</linearGradient>
						<path style="fill:url(#SVGID_00000098188954113435761770000003351199429003523469_);" d="M386.284,71.576L195.564,97.121
							c-2.436,0.337-4.385,3.285-4.385,6.62v42.3c-6.59,2.86-12.939,6.249-18.868,10.347c-3.121,2.183-6.13,4.556-8.908,7.246
							c-2.75,2.712-5.352,5.694-7.209,9.359c-0.911,1.83-1.618,3.861-1.815,6.054c-0.205,2.167,0.31,4.572,1.343,6.392
							c1.007,1.876,2.446,3.432,4.035,4.637c1.588,1.22,3.323,2.128,5.09,2.846c3.542,1.432,7.218,2.152,10.875,2.587
							c3.664,0.421,7.33,0.527,10.979,0.453c-3.633-0.34-7.245-0.861-10.766-1.68c-3.509-0.826-6.961-1.941-10.025-3.612
							c-3.041-1.651-5.712-3.974-6.818-6.843c-0.583-1.449-0.684-2.788-0.413-4.235c0.295-1.426,0.945-2.845,1.811-4.188
							c1.749-2.695,4.259-5.062,6.942-7.176c2.712-2.109,5.668-3.964,8.725-5.643c4.793-2.597,9.849-4.739,15.022-6.517v78.271
							c0,3.323,1.949,6.283,4.385,6.608l190.719,25.558c4.522,0.612,8.219-2.623,8.219-7.22V78.796
							C394.503,74.199,390.805,70.964,386.284,71.576z"/>
					</g>
					<g>
						<g>
							
								<linearGradient id="SVGID_00000172421951544778642370000001898749952421962880_" gradientUnits="userSpaceOnUse" x1="196.9746" y1="169.0359" x2="383.7104" y2="169.0359">
								<stop  offset="0" style="stop-color:#FF7D3D"/>
								<stop  offset="1" style="stop-color:#D84505"/>
							</linearGradient>
							<polygon style="fill:url(#SVGID_00000172421951544778642370000001898749952421962880_);" points="383.71,83.642 
								383.71,254.43 253.446,239.089 223.234,235.526 204.731,233.349 196.975,232.432 196.975,105.639 258.578,98.387 
								339.831,88.809 352.616,87.308 							"/>
							<g>
								
									<linearGradient id="SVGID_00000026865913118683238720000013806491475422049425_" gradientUnits="userSpaceOnUse" x1="196.9746" y1="161.0791" x2="339.8305" y2="161.0791">
									<stop  offset="0" style="stop-color:#FFFFFF"/>
									<stop  offset="1" style="stop-color:#D84505;stop-opacity:0"/>
								</linearGradient>
								<polygon style="opacity:0.3;fill:url(#SVGID_00000026865913118683238720000013806491475422049425_);" points="
									339.831,88.809 204.731,233.349 196.975,232.432 196.975,177.061 258.578,98.387 								"/>
								
									<linearGradient id="SVGID_00000180331516402631077550000004478297572225558966_" gradientUnits="userSpaceOnUse" x1="223.2338" y1="161.3655" x2="383.7104" y2="161.3655">
									<stop  offset="0" style="stop-color:#FFFFFF"/>
									<stop  offset="1" style="stop-color:#D84505;stop-opacity:0"/>
								</linearGradient>
								<polygon style="opacity:0.3;fill:url(#SVGID_00000180331516402631077550000004478297572225558966_);" points="
									383.71,83.642 383.71,116.258 244.158,239.089 223.234,235.526 352.616,87.308 								"/>
							</g>
						</g>
						<path style="fill:#FFFFFF;" d="M383.714,255.435c-0.039,0-0.078-0.002-0.117-0.007l-186.74-22.001
							c-0.503-0.06-0.883-0.486-0.883-0.993V105.643c0-0.507,0.379-0.934,0.883-0.993l186.74-22.001
							c0.282-0.032,0.568,0.056,0.781,0.246c0.214,0.19,0.336,0.462,0.336,0.748v170.792c0,0.286-0.122,0.558-0.336,0.748
							C384.194,255.346,383.957,255.435,383.714,255.435z M197.974,231.545l184.74,21.766V84.767l-184.74,21.765V231.545z"/>
					</g>
				</g>
				<g>
					<g>
						<polygon style="opacity:0.5;fill:#BA9D9D;" points="356.813,145.881 284.835,225.339 276.503,185.507 						"/>
						<path style="opacity:0.5;fill:#BA9D9D;" d="M279.557,192.518c-28.093,12.267-57.96,20.449-88.377,24.208v-7.582
							c23.259-3.048,50.503-9.644,78.846-19.649l-1.474-4.185c1.724-0.337,3.46-0.687,5.184-1.012
							C275.484,186.822,277.808,189.995,279.557,192.518z"/>
					</g>
					<g>
						
							<linearGradient id="SVGID_00000139989900032090083890000000086248364429174202_" gradientUnits="userSpaceOnUse" x1="307.9044" y1="160.1423" x2="307.4113" y2="181.3487" gradientTransform="matrix(0.9224 -0.3862 0.3862 0.9224 -39.3691 117.2065)">
							<stop  offset="0" style="stop-color:#FFFFFF"/>
							<stop  offset="0.2779" style="stop-color:#FBFAFC"/>
							<stop  offset="0.6107" style="stop-color:#F0EBF4"/>
							<stop  offset="0.9704" style="stop-color:#DDD3E6"/>
							<stop  offset="1" style="stop-color:#DBD1E5"/>
						</linearGradient>
						<polygon style="fill:url(#SVGID_00000139989900032090083890000000086248364429174202_);" points="266.024,171.312 
							283.291,194.701 356.813,145.881 						"/>
						<polygon style="fill:#FFFFFF;" points="264.367,135.964 266.024,171.312 356.813,145.881 						"/>
						<path style="fill:#FFFFFF;" d="M356.813,145.881l-89.874,34.857v0.001c-28.48,10.068-55.536,15.202-75.76,15.289
							c-0.653,4.449-0.677,8.824,0,13.116c22.352-2.929,48.375-9.144,75.536-18.503l-0.692,30.63L356.813,145.881z"/>
					</g>
				</g>
			</g>
		</g>
	</g>
</g>
</svg>
