<?xml version="1.0" encoding="utf-8"?>
<!-- Generator: Adobe Illustrator 27.5.0, SVG Export Plug-In . SVG Version: 6.00 Build 0)  -->
<svg version="1.1" xmlns="http://www.w3.org/2000/svg" xmlns:xlink="http://www.w3.org/1999/xlink" x="0px" y="0px"
	 viewBox="0 0 500 500" style="enable-background:new 0 0 500 500;" xml:space="preserve">
<g id="BACKGROUND">
	<rect style="fill:#00042D;" width="500" height="500"/>
</g>
<g id="OBJECTS">
	<g>
		<g>
			<linearGradient id="SVGID_1_" gradientUnits="userSpaceOnUse" x1="242.8255" y1="192.5302" x2="246.8459" y2="299.0698">
				<stop  offset="0" style="stop-color:#A76DFC"/>
				<stop  offset="0.2254" style="stop-color:#9B60F0"/>
				<stop  offset="0.6394" style="stop-color:#7C3ED1"/>
				<stop  offset="1" style="stop-color:#5C1CB2"/>
			</linearGradient>
			<path style="fill:url(#SVGID_1_);" d="M292.81,294.54h-92.27l1.43-4.45c0.77-2.39,3-4.01,5.51-4.01h6.71
				c1.71,0,3.25-0.99,3.97-2.49c0.12-0.25,0.23-0.52,0.3-0.79l1.57-5.93l1.55-5.83h50.19l1.55,5.83l1.57,5.93
				c0.07,0.27,0.18,0.54,0.3,0.79c0.72,1.5,2.25,2.49,3.97,2.49h6.71c2.51,0,4.73,1.62,5.5,4.01L292.81,294.54z"/>
			
				<linearGradient id="SVGID_00000001649234262509463990000017282211408419463819_" gradientUnits="userSpaceOnUse" x1="246.9936" y1="298.5656" x2="246.5511" y2="277.7682">
				<stop  offset="0" style="stop-color:#5CBFFC;stop-opacity:0"/>
				<stop  offset="0.2757" style="stop-color:#5C8AE4;stop-opacity:0.2757"/>
				<stop  offset="0.6158" style="stop-color:#5C4FC9;stop-opacity:0.6158"/>
				<stop  offset="0.8672" style="stop-color:#5C2AB8;stop-opacity:0.8672"/>
				<stop  offset="1" style="stop-color:#5C1CB2"/>
			</linearGradient>
			<path style="fill:url(#SVGID_00000001649234262509463990000017282211408419463819_);" d="M275.19,283.59h-57.03
				c0.12-0.25,0.23-0.52,0.3-0.79l1.57-5.93l1.55-5.83h50.19l1.55,5.83l1.57,5.93C274.96,283.07,275.07,283.34,275.19,283.59z"/>
			<polygon style="fill:#00042D;" points="273.32,276.87 220.03,276.87 221.58,271.04 271.77,271.04 			"/>
			
				<linearGradient id="SVGID_00000156567979310352842810000001226254611347301810_" gradientUnits="userSpaceOnUse" x1="246.1906" y1="183.1924" x2="250.3416" y2="293.191">
				<stop  offset="0" style="stop-color:#A76DFC"/>
				<stop  offset="0.2254" style="stop-color:#9B60F0"/>
				<stop  offset="0.6394" style="stop-color:#7C3ED1"/>
				<stop  offset="1" style="stop-color:#5C1CB2"/>
			</linearGradient>
			<path style="fill:url(#SVGID_00000156567979310352842810000001226254611347301810_);" d="M329.59,164.34l-0.01,2.61l0.02-0.01
				v-2.6H329.59z M329.59,164.34l-0.01,2.61l0.02-0.01v-2.6H329.59z M329.59,164.34l-0.01,2.61l0.02-0.01v-2.6H329.59z
				 M329.59,164.34l-0.01,2.61l0.02-0.01v-2.6H329.59z M329.59,164.34l-0.01,2.61l0.02-0.01v-2.6H329.59z M337.07,123.87H156.65
				c-2.78,0-5.06,2.27-5.07,5.04l-0.19,73.62l-0.02,7.6l-0.02,8v2.03l-0.02,6.51l-0.02,9.09l-0.06,25.07l-0.01,2.07
				c0,2.77,2.26,5.04,5.04,5.04h180.56c2.78,0,5.06-2.27,5.06-5.04l0.01-2.07l0.05-19.24h-0.14l0.08-32.85l0.04-13.44l0.04-18.18
				l0.02-7.26v-1.17l0.01-4.76l0.01-3.18v-0.92l0.04-16.57l0.04-14.35C342.11,126.14,339.84,123.87,337.07,123.87z M329.41,242.67
				H163.69l0.01-6.53l0.02-8.56l0.01-1.32l0.01-4.22v-2.07l0.04-14.69l0.16-71.52h165.72l-0.02,10.34l-0.05,20.24l-0.01,2.61
				l-0.02,8.21v1.43l-0.01,6.43l-0.01,2.44l-0.02,11.15v0.01L329.41,242.67z M329.59,164.34l-0.01,2.61l0.02-0.01v-2.6H329.59z
				 M329.59,164.34l-0.01,2.61l0.02-0.01v-2.6H329.59z M329.59,164.34l-0.01,2.61l0.02-0.01v-2.6H329.59z M329.59,164.34l-0.01,2.61
				l0.02-0.01v-2.6H329.59z M329.59,164.34l-0.01,2.61l0.02-0.01v-2.6H329.59z"/>
			
				<linearGradient id="SVGID_00000081615857559232797470000015668403266561205945_" gradientUnits="userSpaceOnUse" x1="245.8781" y1="276.3716" x2="247.2056" y2="248.9362">
				<stop  offset="0" style="stop-color:#5CBFFC;stop-opacity:0"/>
				<stop  offset="0.2757" style="stop-color:#5C8AE4;stop-opacity:0.2757"/>
				<stop  offset="0.6158" style="stop-color:#5C4FC9;stop-opacity:0.6158"/>
				<stop  offset="0.8672" style="stop-color:#5C2AB8;stop-opacity:0.8672"/>
				<stop  offset="1" style="stop-color:#5C1CB2"/>
			</linearGradient>
			<path style="fill:url(#SVGID_00000081615857559232797470000015668403266561205945_);" d="M151.25,260.835l-0.005,2.061
				c-0.008,2.774,2.259,5.043,5.036,5.043h180.561c2.777,0,5.055-2.269,5.063-5.043l0.005-2.061H151.25z"/>
			
				<linearGradient id="SVGID_00000095311288456281952830000009621015869854675847_" gradientUnits="userSpaceOnUse" x1="247.047" y1="192.6267" x2="245.5078" y2="122.592">
				<stop  offset="0" style="stop-color:#FF00C1"/>
				<stop  offset="0.1601" style="stop-color:#FE15AD"/>
				<stop  offset="0.4927" style="stop-color:#FA4D7B"/>
				<stop  offset="0.9659" style="stop-color:#F4A52A"/>
				<stop  offset="1" style="stop-color:#F4AC24"/>
			</linearGradient>
			<path style="fill:url(#SVGID_00000095311288456281952830000009621015869854675847_);" d="M342.1,128.91l-0.03,14.35l-0.03,16.56
				v0.92l-0.01,3.18c-0.01,0-0.01,0.01-0.02,0.01c-4.12,2.23-8.27,4.42-12.42,6.6l0.01-3.59v-2.6l0.04-20.24l0.02-10.34H163.94
				l-0.16,71.52l-0.04,14.69v2.07l-0.01,4.22c-4.13,0.25-8.26,0.37-12.39,0.4l0.02-6.5v-1.09l0.04-16.54l0.18-73.62
				c0.01-2.77,2.29-5.04,5.07-5.04h180.42C339.84,123.87,342.11,126.14,342.1,128.91z"/>
			<polygon style="fill:#00042D;" points="342.02,160.75 342.01,163.93 342,168.69 342,169.86 341.98,177.12 341.94,195.3 
				341.9,208.74 329.52,196.62 329.52,196.61 329.54,185.46 329.55,183.02 329.56,176.59 329.56,175.16 329.58,166.95 329.6,166.94 
							"/>
			<path style="fill:#00042D;" d="M163.74,222.04l-0.01,4.22l-0.01,1.32l-0.02,8.56c-4.24,0.02-8.4-0.1-12.39-0.38l0.02-9.09
				l0.02-6.51h0.01C155.16,220.98,159.3,221.61,163.74,222.04z"/>
			<path style="fill:#00042D;" d="M163.78,205.28l-0.04,14.69c-1-0.02-1.99-0.06-2.97-0.12c-3.25-0.15-6.41-0.41-9.41-0.78h-0.01
				v-0.94l0.02-8l0.02-7.6h0.01C155.1,203.67,159.24,204.59,163.78,205.28z"/>
			<path style="fill:#FFFFFF;" d="M308.37,183.11c-0.13,0.14-1.21,1.31-3.47,3.21c-1.27,1.07-2.9,2.36-4.95,3.84
				c-0.41,0.29-0.84,0.59-1.28,0.9c-0.7,0.49-1.43,0.99-2.21,1.5c-0.46,0.31-0.94,0.62-1.44,0.94c-0.79,0.51-1.63,1.04-2.5,1.57
				c-0.58,0.35-1.18,0.71-1.8,1.08c-0.16,0.09-0.31,0.18-0.47,0.28c-0.03,0.01-0.06,0.03-0.1,0.05c-0.44,0.26-0.89,0.52-1.35,0.78
				c-0.66,0.38-1.33,0.76-2.03,1.14c-2.43,1.34-5.1,2.73-8.01,4.15c-0.84,0.4-1.69,0.81-2.57,1.22c-0.43,0.2-0.88,0.41-1.32,0.61
				c-3.58,1.65-7.49,3.32-11.76,4.99c-0.53,0.21-1.07,0.42-1.62,0.63c-2.17,0.84-4.44,1.68-6.8,2.51c-0.59,0.21-1.18,0.41-1.78,0.62
				c-1.2,0.42-2.43,0.83-3.68,1.24c-0.62,0.21-1.25,0.42-1.89,0.62c-4.44,1.44-9.18,2.86-14.23,4.23c-0.72,0.2-1.44,0.39-2.18,0.59
				c-0.73,0.19-1.47,0.39-2.21,0.58c-1.49,0.39-3.01,0.77-4.55,1.15c-14.56,3.57-39.22,6.71-60.45,6.04
				c-4.31-0.14-8.48-0.43-12.39-0.91c-8.74-1.07-16.22-3.07-21.15-6.31c-8.03-5.28-11.33-11.19-11.33-17.24c0-0.3,0.01-0.6,0.03-0.9
				c0.01-0.35,0.04-0.71,0.08-1.06c0.04-0.32,0.09-0.64,0.14-0.97c0.04-0.24,0.09-0.49,0.14-0.74c0.02-0.07,0.03-0.14,0.05-0.21
				v-0.01c0.01-0.06,0.03-0.13,0.04-0.19c0.06-0.27,0.13-0.54,0.21-0.81c0.01-0.04,0.02-0.07,0.03-0.11
				c0.08-0.28,0.16-0.56,0.25-0.84c0.22-0.67,0.47-1.33,0.75-2c0.13-0.3,0.26-0.61,0.4-0.92c0.02-0.02,0.02-0.04,0.03-0.06
				c0.29-0.6,0.6-1.21,0.93-1.81c0.03-0.05,0.06-0.09,0.08-0.14c0.19-0.32,0.37-0.64,0.56-0.96c0.04-0.05,0.07-0.1,0.09-0.14
				c0.16-0.25,0.31-0.5,0.46-0.74c0.01-0.01,0.02-0.02,0.02-0.02c0.02-0.03,0.04-0.06,0.05-0.08c0.22-0.33,0.43-0.65,0.66-0.97
				c0.25-0.37,0.52-0.74,0.78-1.1c0.05-0.06,0.09-0.12,0.13-0.17c0.17-0.22,0.33-0.44,0.5-0.65c0.5-0.64,1.02-1.27,1.56-1.9
				c0.24-0.28,0.48-0.56,0.73-0.84c0.43-0.48,0.88-0.95,1.33-1.43c0.47-0.49,0.95-0.98,1.45-1.46c0.3-0.3,0.61-0.59,0.92-0.89
				c0.01-0.01,0.02-0.01,0.03-0.02c0.32-0.31,0.64-0.61,0.97-0.91c0.29-0.26,0.59-0.53,0.88-0.8c0.04-0.02,0.08-0.06,0.12-0.1
				c0.34-0.3,0.68-0.59,1.03-0.89c1.04-0.88,2.11-1.75,3.21-2.6c0.36-0.28,0.73-0.56,1.09-0.84c0.01,0,0.01,0,0.01,0
				c0.38-0.28,0.75-0.56,1.13-0.84c0.1-0.07,0.2-0.14,0.3-0.22c0.28-0.2,0.56-0.4,0.84-0.6c3.38-2.41,6.95-4.66,10.56-6.69v0.76
				c-2.61,2.17-5.2,4.79-7.51,7.66c-0.86,1.07-1.69,2.18-2.46,3.32c-2.76,4.02-4.87,8.35-5.73,12.48
				c-1.4,6.57,0.33,12.66,7.56,16.25c2.4,1.19,5.1,2.25,8.09,3.17c0.01,0,0.01,0,0.01,0c3.71,1.14,7.85,2.06,12.38,2.76
				c26.04,3.96,65.04,0.19,108.6-14.98C284.09,193.83,296.14,188.91,308.37,183.11z"/>
			
				<linearGradient id="SVGID_00000057851483579958741930000004426383918779019693_" gradientUnits="userSpaceOnUse" x1="98.3488" y1="214.8363" x2="243.1092" y2="184.8562">
				<stop  offset="0" style="stop-color:#5CBFFC;stop-opacity:0"/>
				<stop  offset="0.2757" style="stop-color:#5C8AE4;stop-opacity:0.2757"/>
				<stop  offset="0.6158" style="stop-color:#5C4FC9;stop-opacity:0.6158"/>
				<stop  offset="0.8672" style="stop-color:#5C2AB8;stop-opacity:0.8672"/>
				<stop  offset="1" style="stop-color:#5C1CB2"/>
			</linearGradient>
			<path style="fill:url(#SVGID_00000057851483579958741930000004426383918779019693_);" d="M304.9,186.32
				c-1.27,1.07-2.9,2.36-4.95,3.84c-0.41,0.29-0.84,0.59-1.28,0.9c-0.7,0.49-1.43,0.99-2.21,1.5c-0.46,0.31-0.94,0.62-1.44,0.94
				c-0.79,0.51-1.63,1.04-2.5,1.57c-0.58,0.35-1.18,0.71-1.8,1.08c-0.16,0.09-0.31,0.18-0.47,0.28c-0.03,0.01-0.06,0.03-0.1,0.05
				c-0.44,0.26-0.89,0.52-1.35,0.78c-0.66,0.38-1.33,0.76-2.03,1.14c-2.43,1.34-5.1,2.73-8.01,4.15c-0.84,0.4-1.69,0.81-2.57,1.22
				c-0.43,0.2-0.88,0.41-1.32,0.61c-3.58,1.65-7.49,3.32-11.76,4.99c-0.53,0.21-1.07,0.42-1.62,0.63c-2.17,0.84-4.44,1.68-6.8,2.51
				c-0.59,0.21-1.18,0.41-1.78,0.62c-1.2,0.42-2.43,0.83-3.68,1.24c-0.62,0.21-1.25,0.42-1.89,0.62c-4.44,1.44-9.18,2.86-14.23,4.23
				c-0.72,0.2-1.44,0.39-2.18,0.59c-0.73,0.19-1.47,0.39-2.21,0.58c-1.49,0.39-3.01,0.77-4.55,1.15
				c-14.56,3.57-39.22,6.71-60.45,6.04c-4.31-0.14-8.48-0.43-12.39-0.91c-8.74-1.07-16.22-3.07-21.15-6.31
				c-8.03-5.28-11.33-11.19-11.33-17.24c0-0.3,0.01-0.6,0.03-0.9c0.01-0.35,0.04-0.71,0.08-1.06c0.04-0.32,0.09-0.64,0.14-0.97
				c0.04-0.24,0.09-0.49,0.14-0.74c0.02-0.07,0.03-0.14,0.05-0.21v-0.01c0.01-0.06,0.03-0.13,0.04-0.19
				c0.06-0.27,0.13-0.54,0.21-0.81c0.01-0.04,0.02-0.07,0.03-0.11c0.08-0.28,0.16-0.56,0.25-0.84c0.22-0.67,0.47-1.33,0.75-2
				c0.13-0.3,0.26-0.61,0.4-0.92c0.02-0.02,0.02-0.04,0.03-0.06c0.29-0.6,0.6-1.21,0.93-1.81c0.03-0.05,0.06-0.09,0.08-0.14
				c0.19-0.32,0.37-0.64,0.56-0.96c0.04-0.05,0.07-0.1,0.09-0.14c0.16-0.25,0.31-0.5,0.46-0.74c0.01-0.01,0.02-0.02,0.02-0.02
				c0.02-0.03,0.04-0.06,0.05-0.08c0.22-0.33,0.43-0.65,0.66-0.97c0.25-0.37,0.52-0.74,0.78-1.1c0.05-0.06,0.09-0.12,0.13-0.17
				c0.17-0.22,0.33-0.44,0.5-0.65c0.5-0.64,1.02-1.27,1.56-1.9c0.24-0.28,0.48-0.56,0.73-0.84c0.43-0.48,0.88-0.95,1.33-1.43
				c0.47-0.49,0.95-0.98,1.45-1.46c0.3-0.3,0.61-0.59,0.92-0.89c0.01-0.01,0.02-0.01,0.03-0.02c0.32-0.31,0.64-0.61,0.97-0.91
				c0.29-0.26,0.59-0.53,0.88-0.8c0.04-0.02,0.08-0.06,0.12-0.1c1.36-1.19,2.77-2.35,4.24-3.49c0.36-0.28,0.73-0.56,1.09-0.84
				c0.01,0,0.01,0,0.01,0c0.38-0.28,0.75-0.56,1.13-0.84c0.1-0.07,0.2-0.14,0.3-0.22c0.28-0.2,0.56-0.4,0.84-0.6
				c-4.33,3.58-7.9,7.2-10.43,10.83c-0.34,0.49-0.66,0.98-0.96,1.47c-3.71,6.02-4.43,12.05-0.83,17.97
				c1.99,3.27,5.29,6.5,10.12,9.67c3.26,2.14,7.57,3.78,12.59,5.01c0,0,0,0,0.01,0c2.92,0.71,6.08,1.28,9.41,1.72
				c0.97,0.13,1.96,0.25,2.97,0.36c22.3,2.4,51.05-0.41,67.54-4.46C272.03,205.74,293.57,194.33,304.9,186.32z"/>
			<g>
				
					<linearGradient id="SVGID_00000070080757886808366000000002497874140045622150_" gradientUnits="userSpaceOnUse" x1="333.9667" y1="179.7937" x2="180.4742" y2="350.0647">
					<stop  offset="0" style="stop-color:#74009A"/>
					<stop  offset="0.2409" style="stop-color:#9100A2"/>
					<stop  offset="0.7607" style="stop-color:#DB00B7"/>
					<stop  offset="1" style="stop-color:#FF00C1"/>
				</linearGradient>
				<polygon style="fill:url(#SVGID_00000070080757886808366000000002497874140045622150_);" points="398.17,139.46 356.62,167.31 
					341.98,177.12 331.01,184.47 329.54,185.46 324.77,188.66 314,195.88 314.6,184.69 315.42,169.48 329.59,164.34 329.6,164.34 
					342.02,159.83 342.04,159.82 				"/>
				
					<linearGradient id="SVGID_00000124146223504744891340000003638048224663452308_" gradientUnits="userSpaceOnUse" x1="359.8478" y1="212.0928" x2="355.127" y2="143.9483">
					<stop  offset="0" style="stop-color:#5CBFFC;stop-opacity:0"/>
					<stop  offset="0.2757" style="stop-color:#5C8AE4;stop-opacity:0.2757"/>
					<stop  offset="0.6158" style="stop-color:#5C4FC9;stop-opacity:0.6158"/>
					<stop  offset="0.8672" style="stop-color:#5C2AB8;stop-opacity:0.8672"/>
					<stop  offset="1" style="stop-color:#5C1CB2"/>
				</linearGradient>
				<polygon style="fill:url(#SVGID_00000124146223504744891340000003638048224663452308_);" points="314.599,184.689 
					398.167,139.464 315.416,169.484 				"/>
				
					<linearGradient id="SVGID_00000163031237149449096440000008425030439438169782_" gradientUnits="userSpaceOnUse" x1="335.0472" y1="193.1528" x2="344.4105" y2="144.8962">
					<stop  offset="0" style="stop-color:#FF00C1"/>
					<stop  offset="0.1601" style="stop-color:#FE15AD"/>
					<stop  offset="0.4927" style="stop-color:#FA4D7B"/>
					<stop  offset="0.9659" style="stop-color:#F4A52A"/>
					<stop  offset="1" style="stop-color:#F4AC24"/>
				</linearGradient>
				<polygon style="fill:url(#SVGID_00000163031237149449096440000008425030439438169782_);" points="315.416,169.484 
					291.36,146.691 398.167,139.464 				"/>
				
					<linearGradient id="SVGID_00000057838260780153736260000014494216395214430375_" gradientUnits="userSpaceOnUse" x1="353.8597" y1="196.8049" x2="363.2238" y2="148.5439">
					<stop  offset="0" style="stop-color:#FF00C1"/>
					<stop  offset="0.1601" style="stop-color:#FE15AD"/>
					<stop  offset="0.4927" style="stop-color:#FA4D7B"/>
					<stop  offset="0.9659" style="stop-color:#F4A52A"/>
					<stop  offset="1" style="stop-color:#F4AC24"/>
				</linearGradient>
				<polygon style="fill:url(#SVGID_00000057838260780153736260000014494216395214430375_);" points="398.17,139.46 368.71,172.82 
					345.62,198.95 341.94,195.3 331.01,184.47 329.55,183.02 325.36,178.87 324.35,177.87 329.56,175.16 342,168.69 350.22,164.41 
									"/>
			</g>
		</g>
		<g>
			
				<text transform="matrix(1 0 0 1 104.3041 353.2069)" style="fill:#FFFFFF; font-family:'Montserrat-ExtraBold'; font-size:47.346px;">COMPUTER</text>
			
				<text transform="matrix(1 0 0 1 146.4233 372.0935)" style="fill:#FFFFFF; font-family:'Montserrat-Medium'; font-size:11.5392px; letter-spacing:4;">TAGLINE GOES HERE</text>
		</g>
	</g>
</g>
</svg>
